#!OML:ASF F:\VICON\USERDATA\INSTALL\Justin_Nancy\Justin_Nancy.ASF
:FULLY-SPECIFIED
:DEGREES
37
root 0.8736 17.4455 -34.578 6.53015 -1.6675 1.39043
lowerback 1.79408 -2.77701 -4.54592
upperback -3.55245 -3.74912 4.18893
thorax -4.12638 -1.64817 7.12585
lowerneck -7.81662 -1.08289 -13.3888
upperneck 18.4549 -0.57702 5.86482
head 6.9919 -0.708866 4.09137
rclavicle -3.49737e-014 5.56597e-015
rhumerus -34.7776 -2.59144 -81.4588
rradius 27.9395
rwrist 8.8933
rhand -16.6488 13.1493
rfingers 7.12502
rthumb 9.57424 -16.6131
lclavicle -3.49737e-014 5.56597e-015
lhumerus -38.2094 19.7118 82.5519
lradius 26.9266
lwrist -11.2791
lhand -10.9499 32.0258
lfingers 7.12502
lthumb 15.0688 61.4574
rfemur -14.3353 5.06801 21.1997
rtibia 31.2952
rfoot -18.1644 -11.2488
rtoes 1.28032
lfemur -14.6788 -4.26678 -22.0976
ltibia 30.3786
lfoot -18.7618 8.67718
ltoes 1.72878
38
root 0.86345 17.4463 -34.5768 6.54826 -1.70264 1.48501
lowerback 1.90605 -2.95732 -4.91029
upperback -3.70015 -4.00241 4.42598
thorax -4.26887 -1.74963 7.61194
lowerneck -7.37222 -0.758438 -13.692
upperneck 18.2216 -0.136243 5.78867
head 6.79565 -0.521598 4.14376
rclavicle -4.47638e-014 6.36111e-015
rhumerus -34.8618 -1.77337 -81.3906
rradius 27.9452
rwrist 8.68198
rhand -16.5422 13.2598
rfingers 7.12502
rthumb 9.67703 -16.4979
lclavicle -4.47638e-014 6.36111e-015
lhumerus -38.7109 20.6722 82.2735
lradius 27.0324
lwrist -11.949
lhand -10.0406 32.7832
lfingers 7.12502
lthumb 15.9446 62.1469
rfemur -14.3827 4.98592 21.1222
rtibia 31.3577
rfoot -18.1889 -11.1825
rtoes 2.51435
lfemur -14.6869 -3.90575 -22.1767
ltibia 30.3406
lfoot -18.6815 8.43757
ltoes 1.4771
39
root 0.854013 17.4485 -34.5757 6.65069 -1.60214 1.67163
lowerback 1.94477 -3.124 -5.23949
upperback -3.7857 -4.23763 4.56883
thorax -4.31137 -1.84984 7.96948
lowerneck -7.38294 -0.557022 -13.991
upperneck 18.2467 0.182003 5.80338
head 6.77438 -0.387934 4.22263
rclavicle 2.84883e-014 -9.54166e-015
rhumerus -34.8742 -1.17831 -81.3428
rradius 27.9792
rwrist 8.66976
rhand -16.5629 13.4645
rfingers 7.12502
rthumb 9.65708 -16.2941
lclavicle 2.84883e-014 -9.54166e-015
lhumerus -38.9075 21.1883 82.222
lradius 26.9809
lwrist -11.8064
lhand -10.3067 33.4671
lfingers 7.12502
lthumb 15.6883 62.8511
rfemur -14.5153 4.8374 20.9544
rtibia 31.4213
rfoot -18.2878 -11.2064
rtoes 0.852757
lfemur -14.8023 -3.93791 -22.3227
ltibia 30.292
lfoot -18.6785 8.36849
ltoes 1.45366
40
root 0.842474 17.448 -34.5764 6.70821 -1.56555 1.53103
lowerback 1.90283 -2.80479 -4.76344
upperback -3.57198 -3.79662 4.26652
thorax -4.1843 -1.66068 7.3433
lowerneck -7.92903 -0.918696 -13.6872
upperneck 18.3457 -0.315848 6.02102
head 6.95029 -0.585291 4.21216
rclavicle -1.27222e-014 -1.59028e-014
rhumerus -34.579 -2.63032 -81.1633
rradius 27.7663
rwrist 9.2536
rhand -16.605 14.0914
rfingers 7.12502
rthumb 9.61643 -15.6691
lclavicle -1.27222e-014 -1.59028e-014
lhumerus -38.2351 19.9778 82.5347
lradius 26.9391
lwrist -11.3749
lhand -10.4814 32.9197
lfingers 7.12502
lthumb 15.52 62.3168
rfemur -14.582 4.8794 21.1611
rtibia 31.4348
rfoot -18.2768 -11.2667
rtoes 1.22321
lfemur -14.8768 -3.88715 -22.1133
ltibia 30.2838
lfoot -18.6797 8.36752
ltoes 0.983834
41
root 0.831863 17.4457 -34.5743 6.77922 -1.67018 1.4919
lowerback 1.65461 -1.88 -3.75104
upperback -2.82123 -2.54325 3.24353
thorax -3.53566 -1.11864 5.59093
lowerneck -9.93584 -2.05642 -12.4392
upperneck 18.6968 -1.8801 6.39173
head 7.56872 -1.19838 4.00479
rclavicle 2.40529e-014 -3.97569e-015
rhumerus -33.5594 -6.35068 -81.1565
rradius 27.5978
rwrist 9.91982
rhand -16.6328 14.1884
rfingers 7.12502
rthumb 9.58967 -15.5733
lclavicle 2.40529e-014 -3.97569e-015
lhumerus -36.0295 16.8105 83.1888
lradius 26.9301
lwrist -11.3082
lhand -10.1975 33.2269
lfingers 7.12502
lthumb 15.7935 62.6026
rfemur -14.6643 5.09971 21.2301
rtibia 31.4246
rfoot -18.2254 -11.3658
rtoes 1.19522
lfemur -14.9324 -3.82062 -22.0298
ltibia 30.2811
lfoot -18.7013 8.36678
ltoes 1.26858
42
root 0.825014 17.4454 -34.5615 6.81157 -1.67482 1.47835
lowerback 2.25996 -3.84285 -6.11903
upperback -4.23374 -5.22478 5.5962
thorax -4.63532 -2.26809 9.67633
lowerneck -6.42066 0.283659 -14.7949
upperneck 17.9993 1.39391 5.19724
head 6.41346 0.0929813 4.224
rclavicle 6.75619e-014 -9.54166e-015
rhumerus -35.0623 2.00736 -81.2296
rradius 27.5879
rwrist 8.95375
rhand -16.6525 13.969
rfingers 7.12502
rthumb 9.57065 -15.7937
lclavicle 6.75619e-014 -9.54166e-015
lhumerus -40.9218 23.4033 81.8683
lradius 28.0239
lwrist -11.1135
lhand -10.7496 32.9981
lfingers 7.12502
lthumb 15.2617 62.4151
rfemur -14.5982 5.15537 21.2758
rtibia 31.3558
rfoot -18.276 -11.4349
rtoes 2.97636
lfemur -14.9419 -3.82618 -21.9893
ltibia 30.3359
lfoot -18.7535 8.38129
ltoes 1.474
43
root 0.816348 17.4478 -34.5508 6.86704 -1.54875 1.47971
lowerback 1.54137 -2.27026 -4.16773
upperback -3.03354 -3.06526 3.66001
thorax -3.58828 -1.35661 6.28761
lowerneck -9.04148 -1.59943 -12.626
upperneck 18.4435 -1.26189 6.01987
head 7.26611 -0.954839 3.9621
rclavicle 3.2551e-014 -1.98785e-014
rhumerus -33.8655 -4.83524 -81.174
rradius 27.539
rwrist 9.93212
rhand -17.0744 13.6278
rfingers 7.12502
rthumb 9.16351 -16.1531
lclavicle 3.2551e-014 -1.98785e-014
lhumerus -36.9305 17.9713 82.9754
lradius 27.0756
lwrist -10.6376
lhand -11.4856 32.7193
lfingers 7.12502
lthumb 14.5527 62.1889
rfemur -14.5797 5.06826 21.3266
rtibia 31.3247
rfoot -18.3141 -11.4899
rtoes 1.20161
lfemur -15.0027 -3.77971 -21.9401
ltibia 30.3524
lfoot -18.6949 8.22145
ltoes 1.08197
44
root 0.807024 17.446 -34.5447 6.95448 -1.46158 1.35603
lowerback 1.93985 -3.35095 -5.38749
upperback -3.89867 -4.53359 5.0293
thorax -4.33208 -1.98207 8.56677
lowerneck -7.05009 -0.296162 -14.0865
upperneck 18.2919 0.568877 5.42327
head 6.69665 -0.244352 4.13897
rclavicle 4.91992e-015 -4.77083e-014
rhumerus -34.7796 -0.110442 -81.1709
rradius 27.6096
rwrist 9.07451
rhand -17.0443 12.8316
rfingers 7.12502
rthumb 9.19256 -16.9481
lclavicle 4.91992e-015 -4.77083e-014
lhumerus -39.7848 21.8146 82.1276
lradius 27.8104
lwrist -11.5201
lhand -10.7414 33.4904
lfingers 7.12502
lthumb 15.2696 62.9067
rfemur -14.6061 5.10439 21.4932
rtibia 31.263
rfoot -18.3825 -11.4985
rtoes 3.12649
lfemur -15.1648 -3.69667 -21.7664
ltibia 30.4041
lfoot -18.6664 8.18766
ltoes 0.318048
45
root 0.796484 17.4441 -34.5325 6.97429 -1.45475 1.46311
lowerback 2.28614 -3.99801 -6.33364
upperback -4.29627 -5.43786 5.8389
thorax -4.63315 -2.36144 10.0801
lowerneck -6.49276 0.389316 -14.9096
upperneck 18.3736 1.61828 4.90097
head 6.53037 0.15478 4.16923
rclavicle -2.17421e-015 1.90833e-014
rhumerus -35.0164 2.77979 -81.1806
rradius 27.6628
rwrist 8.45484
rhand -16.9577 11.7534
rfingers 7.12502
rthumb 9.2762 -18.0225
lclavicle -2.17421e-015 1.90833e-014
lhumerus -41.3925 24.0557 81.7365
lradius 28.3413
lwrist -11.2845
lhand -10.614 33.7831
lfingers 7.12502
lthumb 15.3923 63.1901
rfemur -14.5668 5.01348 21.4065
rtibia 31.2078
rfoot -18.4625 -11.3786
rtoes 1.62457
lfemur -15.2311 -3.63108 -21.869
ltibia 30.4381
lfoot -18.6175 8.34075
ltoes -0.737414
46
root 0.783958 17.4416 -34.5235 7.01919 -1.49884 1.319
lowerback 1.97839 -3.45792 -5.3088
upperback -4.19152 -4.67062 5.11988
thorax -4.63718 -2.0292 8.64455
lowerneck -6.08242 -0.0844155 -14.4402
upperneck 18.2275 0.752004 5.42258
head 6.48887 -0.187564 4.20001
rclavicle 1.71949e-014 4.77083e-015
rhumerus -35.3916 0.568397 -81.1849
rradius 27.7368
rwrist 8.76606
rhand -16.522 12.562
rfingers 7.12502
rthumb 9.6965 -17.1948
lclavicle 1.71949e-014 4.77083e-015
lhumerus -41.14 21.8972 81.8174
lradius 28.4692
lwrist -10.7479
lhand -10.8894 33.5057
lfingers 7.12502
lthumb 15.127 62.9329
rfemur -14.5456 5.27473 21.6245
rtibia 31.148
rfoot -18.4173 -11.5978
rtoes 3.57726
lfemur -15.2064 -3.76866 -21.6471
ltibia 30.4787
lfoot -18.7854 8.43637
ltoes 0.0246969
47
root 0.77389 17.4414 -34.5135 7.01345 -1.42099 1.38471
lowerback 1.779 -2.74196 -4.83989
upperback -3.39472 -3.70758 4.40545
thorax -3.92935 -1.62653 7.51624
lowerneck -8.47606 -1.03692 -13.2503
upperneck 18.7289 -0.384306 5.56569
head 7.18034 -0.63226 3.99268
rclavicle 1.59028e-014 -3.18055e-015
rhumerus -34.2977 -2.46603 -80.9653
rradius 27.6691
rwrist 9.21114
rhand -16.421 12.7475
rfingers 7.12502
rthumb 9.79402 -17.0047
lclavicle 1.59028e-014 -3.18055e-015
lhumerus -38.8919 19.8194 82.5469
lradius 28.1454
lwrist -11.0502
lhand -10.8162 33.0272
lfingers 7.12502
lthumb 15.1976 62.4491
rfemur -14.4629 5.39431 21.5982
rtibia 31.1151
rfoot -18.4228 -11.717
rtoes 2.42271
lfemur -15.0738 -4.0071 -21.6593
ltibia 30.473
lfoot -18.9308 8.40736
ltoes 1.13788
